<?xml version="1.0" encoding="utf-8"?>
<!-- Generator: Adobe Illustrator 18.1.0, SVG Export Plug-In . SVG Version: 6.00 Build 0)  -->
<!DOCTYPE svg PUBLIC "-//W3C//DTD SVG 1.1//EN" "http://www.w3.org/Graphics/SVG/1.1/DTD/svg11.dtd">
<svg version="1.1" id="Layer_1" xmlns="http://www.w3.org/2000/svg" xmlns:xlink="http://www.w3.org/1999/xlink" x="0px" y="0px"
	 width="287.8px" height="109.9px" viewBox="-161 342.1 287.8 109.9" enable-background="new -161 342.1 287.8 109.9"
	 xml:space="preserve">
<g>
	<g>
		<path fill="#00577a" d="M-114.8,373.9c5,0,9.7,1.8,13.4,4.6c-7.4-8.1-12.3-18.6-13.6-30.2c-1.3,12.4-7,23.6-15.4,32l0,0
			C-126.3,376.3-120.8,373.9-114.8,373.9z"/>
		<path fill="#00577a" d="M-130.3,411.4L-130.3,411.4c8.3,8.4,13.9,19.5,15.2,31.9c1.3-11.5,6.1-21.9,13.6-30.2
			c-3.7,2.9-8.3,4.6-13.4,4.6C-120.8,417.7-126.2,415.2-130.3,411.4z"/>
		<path fill="#00577a" d="M-136.7,395.8c0-6,2.4-11.5,6.4-15.5l0,0c-8.7,8.7-20.3,14.4-33.2,15.5c12.9,1.1,24.6,6.9,33.2,15.6l0,0
			C-134.2,407.3-136.7,401.8-136.7,395.8z"/>
	</g>
</g>
<g>
	<g>
		<path fill="#00577a" d="M-95.9,386.8v-1.2l4.1,0.1l6.1-0.1c1.2,0,2.2,0.1,2.9,0.4c0.7,0.3,1.3,0.8,1.8,1.4
			c0.5,0.6,0.8,1.5,0.8,2.6c0,1.1-0.2,2.1-0.8,3c-0.4,0.9-1.2,1.6-2.3,2.3c-1,0.5-2.1,0.9-3.3,0.9c-0.3,0-0.5,0-0.9,0
			c-0.3,0-0.5-0.1-0.9-0.1c-0.1-0.2-0.2-0.5-0.5-1l0.3-0.3c0.2,0.1,0.4,0.1,0.5,0.1c0.2,0,0.3,0,0.4,0c0.9,0,1.6-0.3,2.2-1
			c0.5-0.7,0.9-1.6,0.9-2.9c0-1.3-0.3-2.3-0.9-3c-0.7-0.7-1.4-1-2.5-1c-0.5,0-1.1,0.1-1.8,0.2c0,0.5-0.1,1.4-0.1,2.6v2.7v5.6
			c0,1.3,0,2.7,0.1,4.2c0,0.9,0.1,1.3,0.1,1.5c0,0.1,0.1,0.2,0.2,0.2c0.1,0.1,0.2,0.1,0.4,0.2l1.9,0.1v1.2c-2.4-0.1-4.2-0.1-5.4-0.1
			c-1.3,0-2.5,0-3.7,0.1v-1.2c1,0,1.6-0.1,2-0.2c0.1,0,0.1-0.1,0.2-0.2s0.1-0.4,0.1-1c0.1-1.5,0.1-3.2,0.1-5v-5l0.2-2.7
			c0-1.1,0-1.9-0.1-2.2c0-0.3-0.1-0.4-0.1-0.7c0-0.1-0.1-0.1-0.2-0.2s-0.2-0.1-0.4-0.1L-95.9,386.8z"/>
		<path fill="#00577a" d="M-78.5,405.6v-1.1c1-0.1,1.6-0.1,1.8-0.2c0.1-0.1,0.2-0.2,0.3-0.5c0.1-0.5,0.1-1.9,0.1-4.1
			c0-3,0-4.7-0.1-5c0-0.2-0.1-0.3-0.2-0.3c-0.2-0.1-0.8-0.2-1.9-0.2v-1.1c1.4-0.1,2.4-0.3,3.2-0.4c0.7-0.2,1.5-0.4,2.3-0.8l0.3,0.2
			c-0.1,1.5-0.2,2.9-0.2,4.2v4.8c0,1.6,0,2.6,0.1,3c0,0.2,0.1,0.3,0.2,0.3c0.2,0.1,0.9,0.2,1.9,0.2v1.1c-1.3,0-2.7-0.1-4.3-0.1
			C-76.4,405.6-77.5,405.6-78.5,405.6z M-74.8,384.9c0.5,0,1.1,0.2,1.5,0.7c0.4,0.4,0.7,1,0.7,1.5c0,0.7-0.2,1.1-0.7,1.5
			c-0.4,0.4-0.9,0.7-1.5,0.7c-0.5,0-1.1-0.2-1.5-0.7c-0.4-0.4-0.7-1-0.7-1.5s0.2-1.1,0.7-1.5C-75.9,385.2-75.3,384.9-74.8,384.9z"/>
		<path fill="#00577a" d="M-69.4,394.7V394l1.2-0.8c0.2-0.1,0.4-0.2,0.5-0.4v-1.9c0-0.7,0-1.5-0.1-2.5c0.9-0.3,1.4-0.5,1.8-0.7
			c0,0,0.7-0.3,1.8-0.9l0.3,0.3l-0.1,1.7l-0.1,1.6l-0.1,2.5h0.4c1.2,0,2.2,0,2.7-0.1l-0.2,2c-0.1,0-0.2,0-0.3,0h-1.3h-1.3v4.6
			c0,1.4,0,2.3,0,2.6c0,0.4,0.2,0.8,0.4,1.1c0.2,0.2,0.7,0.3,1.2,0.3c0.3,0,0.5,0,0.8,0c0.2,0,0.4-0.1,0.8-0.1l0.2,0.5l-0.5,0.5
			c-0.4,0.4-0.8,0.8-1.1,1.1c-0.3,0.1-0.7,0.2-1,0.3c-0.3,0-0.5,0.1-0.9,0.1c-1.1,0-1.9-0.3-2.5-0.9c-0.7-0.5-0.9-1.3-0.9-2.1
			l0.1-4.7v-3.5H-68C-68.5,394.7-69,394.7-69.4,394.7z"/>
		<path fill="#00577a" d="M-60,394.7V394l1.2-0.8c0.2-0.1,0.4-0.2,0.5-0.4v-1.9c0-0.7,0-1.5-0.1-2.5c0.9-0.3,1.4-0.5,1.8-0.7
			c0,0,0.7-0.3,1.8-0.9l0.3,0.3l-0.1,1.5l-0.1,1.6l-0.1,2.5h0.4c1.2,0,2.2,0,2.7-0.1l-0.2,2c-0.1,0-0.2,0-0.3,0h-1.3h-1.3v4.6
			c0,1.4,0,2.3,0,2.6c0,0.4,0.2,0.8,0.4,1.1c0.2,0.2,0.7,0.3,1.2,0.3c0.3,0,0.5,0,0.8,0s0.4-0.1,0.8-0.1l0.2,0.5l-0.5,0.5
			c-0.4,0.4-0.8,0.8-1.1,1.1c-0.3,0.1-0.7,0.2-1,0.3c-0.3,0-0.5,0.1-0.9,0.1c-1.1,0-1.9-0.3-2.5-0.9c-0.7-0.5-0.9-1.3-0.9-2.1
			l0.1-4.7v-3.5h-0.3C-59,394.7-59.5,394.7-60,394.7z"/>
		<path fill="#00577a" d="M-49.7,401.1h1.1c0,1.1,0.1,1.8,0.1,2c0.4,0.5,0.9,0.9,1.3,1.2c0.5,0.2,1.1,0.3,1.8,0.3
			c0.9,0,1.5-0.2,2-0.7c0.4-0.4,0.7-1,0.7-1.5c0-0.4-0.1-0.8-0.2-1c-0.1-0.2-0.4-0.5-0.9-0.8c-0.3-0.1-1.1-0.3-2.1-0.5
			s-1.8-0.4-2.3-0.8s-1-0.7-1.2-1.2s-0.4-1.2-0.4-1.9c0-1.3,0.4-2.4,1.4-3.3s2.3-1.3,4.2-1.3c0.8,0,1.4,0.1,2.1,0.2s1.2,0.3,1.8,0.5
			v0.1c-0.1,0.3-0.1,0.7-0.1,1c0,0.3-0.1,1.1-0.1,2.4h-1.1c0-0.1,0-0.3,0-0.5c0-0.4-0.1-0.9-0.2-1.2c-0.3-0.3-0.7-0.7-1.1-0.9
			c-0.4-0.2-0.9-0.3-1.4-0.3c-0.8,0-1.4,0.2-1.9,0.5c-0.4,0.3-0.7,0.8-0.7,1.3s0.1,0.9,0.3,1.1c0.2,0.2,0.4,0.4,0.9,0.5
			c0.3,0.1,1.1,0.3,2.1,0.4c1,0.1,1.8,0.3,2.1,0.4c0.5,0.2,0.9,0.4,1.2,0.8c0.3,0.3,0.5,0.7,0.7,1.1c0.1,0.4,0.2,1,0.2,1.5
			c0,1.4-0.5,2.6-1.6,3.6s-2.5,1.4-4.5,1.4c-0.7,0-1.3-0.1-1.9-0.2c-0.5-0.1-1.3-0.3-2.2-0.7l-0.1-0.2c0.1-0.8,0.1-1.2,0.1-1.5
			L-49.7,401.1z"/>
		<path fill="#00577a" d="M-38,386.9v-1c2.1-0.2,3.8-0.7,5.4-1.2c0.1,0,0.2,0.1,0.3,0.2c-0.1,3.9-0.1,6.3-0.1,6.9v2.6l1.6-1.4
			c0.4-0.4,1-0.7,1.3-0.9c0.4-0.1,0.9-0.2,1.5-0.2c1.5,0,2.9,0.5,3.8,1.5s1.4,2.4,1.4,4.1c0,1-0.2,2-0.5,3s-0.9,1.8-1.4,2.4
			c-0.1,0.1-0.8,0.5-2,1.5c-1.2,0.9-2,1.4-2.1,1.4c-0.5,0.2-1.2,0.3-2.1,0.3c-0.5,0-1.1-0.1-1.6-0.2s-1.1-0.4-1.9-0.9l-1.2,1.1
			l-0.7-0.2c0.2-2.9,0.3-6.4,0.3-10.4c0-3.9-0.1-6.5-0.2-7.6c0-0.3-0.1-0.5-0.2-0.7C-36.5,387-37.1,386.9-38,386.9z M-32.6,395.9
			c0,0.8,0,1.8,0,3c0,1.6,0,2.9,0,3.7c0.3,0.5,0.7,0.9,1.1,1.1c0.5,0.3,1.1,0.4,1.8,0.4s1.3-0.2,1.8-0.5s0.9-1,1.2-1.8
			c0.3-0.8,0.4-1.8,0.4-2.7c0-1.5-0.3-2.6-1-3.4c-0.7-0.8-1.4-1.2-2.4-1.2c-0.7,0-1.2,0.1-1.6,0.4
			C-31.9,395.1-32.2,395.5-32.6,395.9z"/>
		<path fill="#00577a" d="M-20.5,394.2v-1.1c0.8,0,1.6-0.1,2.4-0.3c0.8-0.2,1.9-0.4,3.1-0.9l0.2,0.1c-0.1,1.9-0.2,3.6-0.2,5.3v1.6
			c0,1.3,0,2.3,0.1,2.7c0.1,0.5,0.3,1.1,0.7,1.3c0.3,0.3,0.8,0.4,1.4,0.4c0.7,0,1.2-0.2,1.6-0.5c0.4-0.3,0.8-0.8,1-1.1
			c0.1-0.2,0.2-0.8,0.2-1.5v-2.4v-2c0-0.7,0-1.1-0.1-1.2c0-0.1-0.1-0.1-0.3-0.2c-0.1,0-0.7-0.1-1.6-0.1v-1.1c1.4-0.2,2.4-0.3,3-0.4
			c0.5-0.1,1.4-0.3,2.6-0.8l0.2,0.1l-0.1,2.6c-0.1,1.9-0.1,2.9-0.1,3.1v3c0,1.8,0,2.9,0.1,3.2c0,0.2,0.1,0.3,0.2,0.3
			c0.2,0.1,0.8,0.2,1.8,0.2v1.1l-2.9-0.1l-2.6,0.1l-0.1-0.1l0.1-1.1c0-0.2,0-0.5,0-1.1c-0.3,0.3-0.7,0.5-1,0.8l-1.5,1.5
			c-0.7,0.2-1.3,0.3-2,0.3c-1.2,0-2.2-0.3-3-1.1c-0.8-0.8-1.1-1.6-1.1-2.9c0-0.1,0-0.7,0-1.5c0-0.4,0-1.1,0-1.9v-3
			c0-0.5,0-0.9-0.1-1s-0.2-0.2-0.3-0.3C-19,394.2-19.6,394.3-20.5,394.2z"/>
		<path fill="#00577a" d="M4.8,404.5v1.1c-1.1,0-2.2-0.1-3.5-0.1c-1.4,0-3,0-4.5,0.1v-1.1c0.8,0,1.2,0,1.5-0.1
			c0.1,0,0.2-0.1,0.3-0.2c0.1-0.2,0.1-0.5,0.1-1l0.1-1.3c0-0.2,0-0.7,0-1.3v-1.9c0-0.9,0-1.9-0.1-3.1c0-0.7-0.1-1-0.1-1
			c0-0.1-0.1-0.1-0.2-0.2c-0.2-0.1-0.7-0.1-1.5-0.1v-1.1c1.6-0.3,2.9-0.5,3.3-0.7c0.4-0.1,1.1-0.3,1.8-0.7l0.3,0.2v2.9
			c0.5-0.7,1.1-1.2,1.4-1.5c0.4-0.5,0.9-1,1.1-1.1c0.3-0.2,0.8-0.3,1.3-0.3c0.3,0,0.7,0.1,0.9,0.2l-0.1,2c0,1.1,0,1.8-0.1,1.9
			l-0.5,0.2c-0.2-0.3-0.4-0.5-0.7-0.7c-0.3-0.2-0.8-0.3-1.1-0.3c-0.5,0-1,0.2-1.4,0.5s-0.7,0.7-0.7,1.1c0,0.2-0.1,1-0.1,2.4v1.2v2
			c0,0.8,0,1.2,0.1,1.3s0.1,0.3,0.3,0.4s0.4,0.1,1,0.2L4.8,404.5z"/>
		<path fill="#00577a" d="M9.9,402.3l2-1.4c-0.7-0.2-1.2-0.5-1.6-0.9c-0.4-0.3-0.8-0.8-1-1.3S9,397.5,9,396.8c0-0.9,0.2-1.8,0.7-2.5
			c0.4-0.8,1.2-1.4,2.1-1.9c1-0.4,2.1-0.7,3.4-0.7c0.9,0,1.6,0.1,2.4,0.3s1.3,0.5,1.9,0.9c0.5,0,0.9,0,1.1,0c0.3,0,1,0,2.3-0.1
			l-0.2,1.8h-2.2c0.1,0.4,0.2,1,0.2,1.4c0,1-0.2,1.9-0.8,2.7c-0.5,0.8-1.3,1.4-2.2,1.8c-0.9,0.3-2,0.7-3.1,0.7c-0.3,0-0.7,0-1.2-0.1
			c-0.3,0.2-0.5,0.3-0.7,0.5c-0.1,0.2-0.2,0.4-0.2,0.7c0,0.3,0.1,0.3,0.2,0.4c0.1,0.1,0.3,0.2,0.5,0.3c0.3,0.1,1.1,0.1,2.3,0.1
			l3.4-0.1c1,0,1.8,0.1,2.3,0.3c0.5,0.2,1,0.5,1.2,1.1c0.2,0.5,0.4,1.1,0.4,2c0,1.2-0.2,2.3-0.8,3.2c-0.5,1-1.3,1.8-2.4,2.4
			c-1.4,0.8-3.1,1.2-4.9,1.2c-1.5,0-2.7-0.2-3.6-0.7c-1-0.4-1.6-1-2-1.5s-0.5-1.2-0.5-2c0-0.4,0.1-0.8,0.2-1.1
			c0.1-0.3,0.2-0.5,0.4-0.8c0.2-0.2,0.4-0.3,0.9-0.7c0.9-0.5,1.4-0.8,1.5-0.9c-0.5-0.1-1-0.2-1.3-0.5c-0.3-0.3-0.5-0.8-0.5-1.2
			c0-0.2,0-0.5,0.1-0.8C9.6,402.8,9.8,402.5,9.9,402.3z M12.7,405.9c-0.8,0.5-1.3,1-1.5,1.3c-0.2,0.4-0.3,0.9-0.3,1.4
			c0,0.9,0.3,1.5,1,2.2c0.7,0.5,1.8,0.9,3.1,0.9c1.4,0,2.5-0.3,3.3-1c0.8-0.7,1.1-1.5,1.1-2.6c0-0.5-0.1-0.9-0.2-1.2
			c-0.1-0.2-0.3-0.4-0.7-0.7c-0.3-0.1-0.7-0.2-1.1-0.2c-0.4,0-1.6,0-3.4,0C13.7,405.9,13.3,405.9,12.7,405.9z M12.3,396.1
			c0,1.3,0.2,2.2,0.7,2.9c0.4,0.7,1,0.9,1.8,0.9s1.4-0.3,1.8-1c0.3-0.4,0.4-1.2,0.4-2.2c0-1.3-0.2-2.3-0.7-2.7
			c-0.4-0.5-1-0.8-1.8-0.8c-0.7,0-1.3,0.2-1.6,0.8C12.5,394.3,12.3,395,12.3,396.1z"/>
		<path fill="#00577a" d="M39.5,404.5v1.1c-1.4,0-2.3-0.1-2.7-0.1c-0.3,0-1.2,0-2.9,0.1l-0.1-0.1l0.2-3c0-0.5,0-1.1,0-1.9v-2.7
			c0-1.3-0.2-2.2-0.7-2.7s-1-0.8-1.8-0.8c-0.5,0-1.1,0.1-1.5,0.4c-0.4,0.3-0.8,0.7-1,1.2c-0.1,0.2-0.1,0.5-0.1,1.2v1.8
			c0,0.8,0,1.6,0,2.9c0,1.1,0,1.9,0.1,2.1c0,0.1,0.1,0.2,0.1,0.2c0,0.1,0.1,0.1,0.2,0.1c0.1,0.1,0.3,0.1,0.7,0.1l1.1,0.1v1.1
			c-2.5-0.1-3.9-0.1-4.2-0.1l-3.4,0.1v-1.1c0.9,0,1.3-0.1,1.4-0.1c0.1,0,0.2-0.1,0.3-0.1c0.1-0.1,0.1-0.2,0.1-0.3
			c0.1-0.3,0.1-1.2,0.1-2.7s0-2.9,0-4.1v-4.6c0-1.5,0-3-0.1-4.2c0-0.7-0.1-1-0.1-1.1s-0.1-0.1-0.1-0.1c-0.1-0.1-0.2-0.1-0.5-0.1
			c-0.1,0-0.5-0.1-1.2-0.1v-1.1c1.3-0.1,2.2-0.3,2.9-0.4c0.5-0.1,1.4-0.3,2.5-0.8l0.3,0.2l-0.1,3.4c0,1.8-0.1,3.3-0.1,4.8v1.3
			l2.4-2.1c0.7-0.2,1.3-0.4,2-0.4c0.8,0,1.4,0.1,2,0.3c0.5,0.2,1,0.5,1.3,1c0.3,0.4,0.5,0.9,0.7,1.3c0.1,0.4,0.2,1.1,0.2,1.9
			c0,0.2,0,1-0.1,2.2c0,0.9,0,1.6,0,2.2c0,1.8,0,2.7,0.1,3.1c0,0.2,0.1,0.3,0.3,0.4C38.1,404.4,38.6,404.5,39.5,404.5z"/>
		<path fill="#00577a" d="M48.4,404.4c1.1-0.1,1.8-0.1,1.9-0.1c0.1,0,0.2-0.1,0.2-0.2c0.1-0.1,0.1-0.2,0.2-0.5s0.1-1.2,0.2-2.6
			c0-0.8,0.1-1.9,0.1-3.1v-4.6l-0.1-4.2c0-0.7,0-1.1-0.1-1.3c0-0.2-0.1-0.3-0.2-0.4c-0.1-0.1-0.2-0.2-0.4-0.2
			c-0.2-0.1-0.8-0.1-1.8-0.2v-1.2c1.2,0.1,2.1,0.1,2.6,0.1h2h1.3c1.9,2.5,4.2,5.5,6.9,8.9c2,2.4,3.6,4.3,4.8,5.6v-3.3
			c0-5.2-0.1-8.1-0.2-9c0-0.3-0.1-0.5-0.2-0.7c-0.2-0.2-1-0.2-2.2-0.3v-1.2c1.1,0.1,2.2,0.1,3.1,0.1s2.1,0,3.5-0.1v1.2
			c-1.1,0-1.8,0.1-2,0.2c-0.1,0-0.1,0.1-0.1,0.2c-0.1,0.4-0.2,1.5-0.2,3.3c0,1.6-0.1,3-0.1,3.7c0,6.4,0.1,10.2,0.2,11.5l-0.2,0.1
			c-0.8-0.1-1.5-0.2-2.4-0.3c-3-3.4-7.2-8.6-12.7-15.5v7c0,1.4,0,3,0.1,4.6c0,1.1,0.1,1.8,0.2,2c0,0.1,0.1,0.2,0.2,0.3
			c0.1,0.1,0.2,0.1,0.4,0.1c0.5,0.1,1,0.1,1.3,0.1c0.1,0,0.1,0,0.3,0v1.2c-1.8,0-2.7,0-3,0c-0.9,0-2.1,0-3.6,0.1V404.4L48.4,404.4z"
			/>
		<path fill="#00577a" d="M72.2,398.9c0-1.6,0.2-3,0.8-4.1c0.6-1.1,1.3-1.9,2.4-2.4s2.3-0.8,3.7-0.8c2.1,0,3.7,0.5,4.8,1.8
			c1.1,1.1,1.6,2.9,1.6,5c0,1.3-0.1,2.4-0.4,3.3c-0.3,0.9-0.8,1.6-1.3,2.3c-0.5,0.5-1.1,1-1.8,1.3c-1,0.5-2.2,0.8-3.5,0.8
			c-2.1,0-3.7-0.7-4.8-1.9C72.6,403,72.2,401.3,72.2,398.9z M76,398.2c0,2.5,0.3,4.3,1.1,5.4c0.4,0.8,1.2,1.1,2.1,1.1
			c0.8,0,1.3-0.2,1.8-0.8c0.5-0.8,0.9-2.1,0.9-4.2c0-1.4-0.1-2.7-0.3-3.7s-0.5-1.8-1-2.2c-0.4-0.4-1-0.7-1.6-0.7
			c-0.5,0-1,0.1-1.4,0.4s-0.8,0.8-1,1.5S76,396.8,76,398.2z"/>
		<path fill="#00577a" d="M95.5,404.5v1.1c-1.1,0-2.2-0.1-3.5-0.1c-1.4,0-3,0-4.5,0.1v-1.1c0.8,0,1.2,0,1.5-0.1
			c0.1,0,0.2-0.1,0.3-0.2c0.1-0.2,0.1-0.5,0.1-1l0.1-1.3c0-0.2,0-0.7,0-1.3v-1.9c0-0.9,0-1.9-0.1-3.1c0-0.7-0.1-1-0.1-1
			c0-0.1-0.1-0.1-0.2-0.2c-0.2-0.1-0.7-0.1-1.5-0.1v-1.1c1.6-0.3,2.9-0.5,3.3-0.7c0.4-0.1,1.1-0.3,1.8-0.7l0.3,0.3v2.9
			c0.5-0.7,1.1-1.2,1.4-1.5c0.4-0.5,0.9-1,1.1-1.1c0.3-0.2,0.8-0.3,1.3-0.3c0.3,0,0.7,0.1,0.9,0.2l-0.1,2c0,1.1,0,1.8-0.1,1.9
			l-0.5,0.2c-0.2-0.3-0.4-0.5-0.7-0.7c-0.3-0.2-0.8-0.3-1.1-0.3c-0.5,0-1,0.2-1.4,0.5c-0.4,0.3-0.7,0.7-0.7,1.1c0,0.2-0.1,1-0.1,2.4
			v1.2v2c0,0.8,0,1.2,0.1,1.3c0.1,0.1,0.1,0.3,0.3,0.4s0.4,0.1,1,0.2H95.5z"/>
		<path fill="#00577a" d="M98.4,394.7V394l1.2-0.8c0.2-0.1,0.4-0.2,0.5-0.4v-1.9c0-0.7,0-1.5-0.1-2.5c0.9-0.3,1.4-0.5,1.8-0.7
			c0,0,0.7-0.3,1.8-0.9l0.3,0.3l-0.1,1.5l-0.1,1.6l-0.1,2.5h0.4c1.2,0,2.2,0,2.7-0.1l-0.2,2c-0.1,0-0.2,0-0.3,0h-1.3h-1.3v4.6
			c0,1.4,0,2.3,0,2.6c0,0.4,0.2,0.8,0.4,1.1c0.2,0.3,0.7,0.3,1.2,0.3c0.3,0,0.5,0,0.8,0c0.2,0,0.4-0.1,0.8-0.1l0.3,0.4l-0.5,0.5
			c-0.4,0.4-0.8,0.8-1.1,1.1c-0.3,0.1-0.7,0.2-1,0.3c-0.3,0-0.5,0.1-0.9,0.1c-1.1,0-1.9-0.3-2.5-0.9c-0.7-0.5-0.9-1.3-0.9-2.1
			l0.1-4.7v-3.5H100C99.4,394.7,98.8,394.7,98.4,394.7z"/>
		<path fill="#00577a" d="M123.8,404.5v1.1c-1.4,0-2.3-0.1-2.7-0.1c-0.3,0-1.2,0-2.9,0.1l-0.1-0.1l0.2-3c0-0.5,0-1.1,0-1.9v-2.7
			c0-1.3-0.2-2.2-0.7-2.7c-0.4-0.5-1-0.8-1.8-0.8c-0.5,0-1.1,0.1-1.5,0.4c-0.4,0.3-0.8,0.7-1,1.2c-0.1,0.2-0.1,0.5-0.1,1.2v1.8
			c0,0.8,0,1.6,0,2.9c0,1.1,0,1.9,0.1,2.1c0,0.1,0.1,0.2,0.1,0.2c0,0.1,0.1,0.1,0.2,0.1c0.1,0.1,0.3,0.1,0.7,0.1l1.1,0.1v1.1
			c-2.5-0.1-3.9-0.1-4.2-0.1l-3.4,0.1v-1.1c0.9,0,1.3-0.1,1.4-0.1s0.2-0.1,0.3-0.1c0.1-0.1,0.1-0.2,0.1-0.3c0.1-0.3,0.1-1.2,0.1-2.7
			s0-2.9,0-4.1v-4.6c0-1.5,0-3-0.1-4.2c0-0.7-0.1-1-0.1-1.1s-0.1-0.1-0.1-0.1c-0.1-0.1-0.2-0.1-0.5-0.1c-0.1,0-0.5-0.1-1.2-0.1v-1.1
			c1.3-0.1,2.2-0.3,2.9-0.4c0.5-0.1,1.4-0.3,2.5-0.8l0.3,0.2l-0.1,3.4c0,1.8-0.1,3.3-0.1,4.8v1.3l2.4-2.1c0.7-0.2,1.3-0.4,2-0.4
			c0.8,0,1.4,0.1,2,0.3c0.5,0.2,1,0.5,1.3,1c0.3,0.4,0.5,0.9,0.7,1.3c0.2,0.4,0.2,1.1,0.2,1.9c0,0.2,0,1-0.1,2.2c0,0.9,0,1.6,0,2.2
			c0,1.8,0,2.7,0.1,3.1c0,0.2,0.1,0.3,0.3,0.4C122.4,404.4,123,404.5,123.8,404.5z"/>
	</g>
</g>
<g>
	<path fill="#00577a" d="M-95.9,411.3v-0.8c0.1,0,0.5,0,1.4,0c0.4,0,1,0,1.6,0s1.1,0,1.5,0c0.8,0,1.3,0,1.8,0c0.9,0,1.6,0.1,2.1,0.2
		c0.5,0.1,0.9,0.4,1.2,0.8c0.3,0.4,0.4,0.9,0.4,1.5s-0.2,1.3-0.7,2c-0.4,0.5-1.1,1-2,1.4c0.1,0.2,0.3,0.5,0.5,0.8
		c0.2,0.2,0.3,0.4,0.3,0.5c0,0.1,0.1,0.1,0.1,0.2l1.3,2c0.3,0.5,0.5,0.9,0.5,0.9c0.4,0.5,0.7,0.9,0.8,1c0.1,0.1,0.2,0.2,0.3,0.2
		c0.1,0,0.3,0.1,0.5,0.1v0.8c-0.9,0-1.5,0-2,0s-1,0-1.4,0c0-0.1-0.1-0.3-0.2-0.5l-1.9-3.1c-0.5-0.9-1-1.5-1.3-2.1
		c-0.2-0.2-0.3-0.4-0.5-0.5l0.1-0.3c0.7,0,1.2,0,1.5-0.2c0.3-0.2,0.7-0.4,0.9-0.9c0.2-0.4,0.3-0.9,0.3-1.4s-0.1-1-0.4-1.3
		c-0.2-0.3-0.5-0.7-1-0.8c0-0.1-0.4-0.2-1.1-0.2c-0.3,0-0.5,0-0.9,0.1c0,0.2,0,0.7,0,1.4c0,1.6,0,2.7,0,3.3c0,0.9,0,1.8,0,2.7
		c0,1.2,0,1.9,0,2.1c0,0.3,0,0.5,0.1,0.7l0.1,0.1c0,0,0.1,0.1,0.2,0.1s0.4,0,1,0v0.8c-1,0-2-0.1-3.1-0.1c-0.9,0-1.8,0-2.5,0.1v-0.8
		c0.7,0,1.1-0.1,1.2-0.1s0.1,0,0.1-0.1c0,0,0.1-0.1,0.1-0.2c0-0.2,0.1-0.5,0.1-1l0.1-2.5v-3.3V413c0-0.8,0-1.2-0.1-1.3
		c0-0.1-0.1-0.1-0.1-0.1C-94.7,411.4-95.2,411.4-95.9,411.3z"/>
	<path fill="#00577a" d="M-81.8,422.9v-0.4c0.3-0.1,0.7-0.3,0.9-0.5c0-0.2,0.1-0.7,0.1-1.2c0-1,0.1-1.8,0.1-2.2v-3.9
		c0-0.1,0-0.8,0-1.8c0-0.7-0.1-1.1-0.1-1.2s-0.1-0.1-0.1-0.1c-0.1-0.1-0.5-0.1-1.3-0.1v-0.7h2.1c0.4,0,0.8,0,1.2,0
		c0.8,0,1.6,0,2.6,0h1.8c0.2,0,0.7,0,1.3,0c0.1,0,0.1,0,0.3,0l0.1,0.1l-0.2,1.2c0,0.1,0,0.5-0.1,1.3h-0.7c0-0.7,0-1.1-0.1-1.3
		c0-0.1-0.1-0.1-0.1-0.2c-0.1,0-0.3-0.1-0.7-0.1c-0.5-0.1-1.1-0.1-1.6-0.1s-1.1,0-1.6,0.1c-0.3,0.5-0.3,1.3-0.3,2.4v1.9
		c0.4,0,0.8,0,1.2,0c0.1,0,0.7,0,1.4,0c0.3,0,0.5,0,0.5-0.1c0.1,0,0.1-0.1,0.1-0.2c0.1-0.2,0.1-0.5,0.1-1.1h0.7v2v2h-0.7
		c0-0.7,0-1.1-0.1-1.2c-0.1-0.1-0.2-0.2-0.3-0.2c-0.4-0.2-1-0.2-1.5-0.2s-1.1,0-1.4,0.1v3.7c0,0.4,0,0.8,0,1.1c0.4,0,1,0.1,1.6,0.1
		s1.2,0,1.8-0.1c0.6-0.1,0.9-0.1,1-0.2l0.1-0.1c0.1-0.3,0.2-0.8,0.3-1.6h0.8c-0.1,1.2-0.2,2.1-0.2,2.9l-0.2-0.1
		c-0.3,0-0.9,0.1-1.6,0.1H-76c-1.4,0-2.3,0-2.9,0C-79.1,422.8-80,422.8-81.8,422.9z"/>
	<path fill="#00577a" d="M-58.4,414.1h-0.7c0-0.2,0-0.4,0-0.9c0-0.2,0-0.4-0.1-0.7c-0.1-0.2-0.3-0.3-0.4-0.4
		c-0.3-0.2-0.8-0.4-1.3-0.7c-0.5-0.2-1.1-0.2-1.6-0.2c-1.4,0-2.6,0.4-3.5,1.3c-0.9,0.9-1.3,2.2-1.3,3.7c0,1.8,0.4,3.1,1.4,4.2
		c0.9,1,2.1,1.5,3.4,1.5c0.4,0,0.8,0,1.1-0.1c0.3-0.1,0.8-0.2,1.1-0.3c0-0.1,0-0.4,0-0.9c0-0.4,0-0.8,0-0.8c0-0.5,0-0.9-0.1-1
		c0-0.1-0.1-0.1-0.2-0.1c-0.2-0.1-0.8-0.1-1.6-0.2v-0.7h2.6h2.6v0.5c-0.3,0.1-0.5,0.2-0.7,0.3c0,0.1-0.1,0.2-0.1,0.4
		c0,0.7,0,1.2,0,1.4c0,0.4,0,0.9,0.1,1.3c-1.1,0.4-2.1,0.7-2.9,0.9c-0.8,0.4-1.7,0.5-2.4,0.5c-1.3,0-2.5-0.2-3.5-0.7
		c-0.7-0.3-1.3-0.8-1.9-1.2c-0.5-0.5-0.9-1-1.1-1.6c-0.4-0.9-0.7-1.9-0.7-3c0-0.9,0.1-1.8,0.4-2.4c0.2-0.7,0.7-1.3,1.1-1.8
		s1-0.9,1.6-1.2c0.7-0.3,1.3-0.5,2-0.7c0.7-0.2,1.4-0.2,2.2-0.2c1,0,2,0.1,2.7,0.2c0.9,0.2,1.5,0.3,2,0.5l0.1,0.2
		C-58.1,411.9-58.2,412.8-58.4,414.1z"/>
	<path fill="#00577a" d="M-49.1,410.6v0.8c-0.5,0-1,0-1.1,0.1c-0.1,0-0.2,0.1-0.2,0.1l-0.1,0.1c0,0.1-0.1,0.3-0.1,0.5
		c0,0.1,0,0.4,0,0.9c0,1.4,0,2.2,0,2.3v3.5v1.6c0,0.5,0,1,0.1,1.2c0,0.1,0.1,0.1,0.1,0.2c0.1,0,0.1,0.1,0.2,0.1s0.4,0,1.1,0.1v0.8
		c-1,0-2-0.1-3.1-0.1c-1,0-1.8,0-2.5,0.1v-0.8c0.7,0,1,0,1.1-0.1c0.1,0,0.2-0.1,0.2-0.1l0.1-0.1c0-0.1,0-0.3,0.1-0.9
		c0-0.7,0.1-1.3,0.1-2v-3.6c0-1.2,0-1.9,0-2.2c0-0.8-0.1-1.2-0.1-1.4c0-0.1,0-0.1-0.1-0.2c0,0-0.1-0.1-0.2-0.1s-0.4,0-1.1-0.1v-0.8
		c0.8,0,1.5,0.1,2.5,0.1S-50.1,410.6-49.1,410.6z"/>
	<path fill="#00577a" d="M-46.9,416.9c0-1.1,0.1-2,0.4-2.9c0.3-0.8,0.8-1.4,1.4-2c0.5-0.5,1.2-1,2-1.2c0.9-0.3,1.9-0.4,3-0.4
		s2,0.1,2.9,0.4c0.7,0.2,1.2,0.5,1.8,1c0.4,0.4,0.9,0.9,1.1,1.3s0.4,1,0.5,1.5s0.2,1.1,0.2,1.8c0,1.1-0.2,2.1-0.5,3.1
		c-0.3,0.7-0.7,1.3-1.2,1.9c-0.5,0.6-1.2,1-1.9,1.2c-1,0.4-2.1,0.5-3.3,0.5c-1.3,0-2.4-0.2-3.4-0.8c-1-0.5-1.6-1.2-2.2-2.1
		C-46.6,419.4-46.9,418.3-46.9,416.9z M-44.2,416.3c0,1.3,0.2,2.5,0.5,3.4c0.3,0.9,0.9,1.5,1.4,1.9s1.3,0.5,2.1,0.5
		c0.8,0,1.4-0.2,2-0.5c0.5-0.3,1-1,1.3-1.8c0.3-0.9,0.5-1.9,0.5-3.1c0-0.8-0.1-1.5-0.2-2.2c-0.1-0.7-0.4-1.2-0.8-1.8
		c-0.3-0.4-0.8-0.9-1.2-1.1c-0.4-0.2-1.1-0.3-1.8-0.3c-0.9,0-1.5,0.2-2.2,0.5c-0.5,0.4-1,1-1.3,1.8
		C-44.1,414.6-44.2,415.4-44.2,416.3z"/>
	<path fill="#00577a" d="M-31.5,422.1c0.7,0,1.1-0.1,1.2-0.1c0.1,0,0.1-0.1,0.1-0.1s0.1-0.1,0.1-0.3s0.1-0.8,0.1-1.6
		c0-0.4,0-1.1,0-1.9v-2.9v-2.5c0-0.4,0-0.7,0-0.9c0-0.1-0.1-0.2-0.1-0.3c-0.1-0.1-0.1-0.1-0.2-0.1c-0.1,0-0.5-0.1-1.1-0.1v-0.8
		c0.8,0,1.3,0.1,1.6,0.1h1.3h0.8c1.2,1.5,2.6,3.4,4.4,5.5c1.2,1.4,2.3,2.6,3.1,3.5v-2c0-3.2,0-5-0.1-5.6c0-0.2-0.1-0.3-0.1-0.4
		c-0.1-0.1-0.5-0.1-1.3-0.2v-0.8c0.7,0,1.3,0.1,2,0.1c0.5,0,1.3,0,2.2-0.1v0.8c-0.8,0-1.1,0.1-1.3,0.1l-0.1,0.1
		c-0.1,0.3-0.1,1-0.2,2c0,1.1,0,1.9,0,2.3c0,3.8,0,6.3,0.1,7.1l-0.1,0.1c-0.4-0.1-1-0.1-1.5-0.2c-1.9-2.1-4.6-5.3-8-9.5v4.4
		c0,0.9,0,1.9,0.1,2.9c0,0.7,0.1,1.1,0.1,1.2s0.1,0.1,0.1,0.2s0.1,0.1,0.3,0.1c0.3,0,0.7,0.1,0.9,0.1c0,0,0.1,0,0.2,0v0.7
		c-1.1,0-1.8,0-1.9,0c-0.5,0-1.3,0-2.3,0.1L-31.5,422.1L-31.5,422.1z"/>
	<path fill="#00577a" d="M-16,422.9v-0.8c0.4,0,0.8-0.1,0.9-0.1c0.1,0,0.2-0.1,0.2-0.1s0.1-0.1,0.2-0.2c0.1-0.1,0.2-0.5,0.5-1.3
		c0.1-0.3,0.4-1.1,0.9-2.2l2.3-5.7l0.8-2H-9l3.9,9.2l0.5,1.2l0.3,0.8c0.1,0.1,0.1,0.2,0.2,0.2c0,0,0.1,0.1,0.2,0.1
		c0.1,0,0.2,0,0.5,0.1c0.1,0,0.2,0,0.4,0v0.8l-2.4-0.1l-3.1,0.1v-0.8c0.7,0,1.1-0.1,1.2-0.1c0.1,0,0.1-0.1,0.1-0.2s-0.1-0.4-0.2-0.8
		l-1-1.9h-4.5l-0.4,1.1c-0.3,0.8-0.4,1.3-0.4,1.5c0,0.1,0,0.2,0.1,0.3s0.5,0.1,1.2,0.1v0.8l-2-0.1H-16V422.9z M-12.2,418.1
		c0.5,0,1.2,0,1.9,0s1.3,0,1.9,0l-1.9-4.5L-12.2,418.1z"/>
	<path fill="#00577a" d="M-0.5,422.9v-0.4c0.1-0.1,0.3-0.2,0.7-0.3c0.1-0.1,0.2-0.1,0.2-0.2v-0.1c0-0.1,0.1-0.7,0.1-1.5
		c0-0.9,0-2,0-3.2c0-1.9,0-3,0-3.4c0-1.1-0.1-1.8-0.1-1.9c0-0.1-0.1-0.1-0.1-0.1c-0.1-0.1-0.5-0.1-1.3-0.2v-0.8
		c0.8,0,1.6,0.1,2.5,0.1c1.1,0,2.1,0,3.1-0.1v0.8c-0.7,0-1.1,0.1-1.2,0.1s-0.1,0.1-0.1,0.2c0,0.1-0.1,0.4-0.1,1.1c0,0.7,0,1.4,0,2.4
		c0,0.1,0,1,0,2.5c0,0.9,0,1.6,0,2.5c0,0.8,0,1.3,0,1.5c0.8,0,1.3,0.1,1.6,0.1c0.9,0,1.6,0,2.3-0.1c0.2,0,0.4-0.1,0.4-0.1
		s0.1-0.1,0.1-0.3c0.1-0.4,0.2-1,0.3-1.5h0.8c0,0.1,0,0.2,0,0.3l-0.2,1.8c0,0.5-0.1,0.9-0.1,1c-0.2,0-0.3,0.1-0.5,0.1
		c-0.3,0-0.9,0-1.6,0c-0.1,0-0.8,0-2.1,0c-1,0-1.6,0-2,0C1.4,422.8,0.6,422.8-0.5,422.9z"/>
</g>
<g>
	<path fill="#00577a" d="M119.3,418.7L119.3,418.7l-0.9-1.6c1.4-0.3,2.7-1.1,2.7-3.4l0,0c0-2.7-2.7-3.4-5-3.4h-5v0.9h0.2
		c1.3,0.1,1.3,0.1,1.4,1.5v8.2c-0.1,1.5-0.1,1.5-1.4,1.5h-0.2v0.9h5.7v-0.9h-0.2c-1.3-0.1-1.3-0.1-1.4-1.5v-3.5h0.8
		c3.6,7.1,11,8.1,11,8.1C123.5,424.1,120.9,421.6,119.3,418.7z M116.2,416.1h-1v-3.5c0.1-1.1-0.1-1.1,1-1.2c1.4,0,2.4,0.4,2.4,2.4
		C118.6,415.5,117.8,416.1,116.2,416.1z"/>
	<path fill="#00577a" d="M50.5,423.2h4.9v-0.9h-0.2c-1.1,0-1.2-0.1-1.2-0.5c0-0.2,0.1-0.4,0.1-0.7l1.5-3.8c1.6,0.5,3.1,1.3,4.1,2.3
		l0.7,1.8c0.1,0.2,0.1,0.4,0.1,0.7s-0.1,0.2-0.3,0.3c-0.2,0.1-0.5,0.1-1,0.1H59v0.9h4.8l0,0l0.5-0.9c-1-0.1-1.2-0.3-1.8-1.6
		l-4.1-10.6h-1.9l-2.3,6c-0.7-0.1-1.4-0.1-2.1-0.1c-0.8,0-1.4,0-2.2,0.1c1.4,0.1,2.7,0.3,4.1,0.7l-1.4,3.7c-0.5,1.4-0.9,1.8-1.9,1.9
		L50.5,423.2z M55.9,416.3l1.2-3.2l1.4,3.8C57.8,416.6,56.8,416.4,55.9,416.3z"/>
	<path fill="#00577a" d="M32.8,421.5l-0.4,0.9c-0.8,0.4-1.4,0.7-2,0.9c-0.5,0.1-1.3,0.2-2.2,0.2c-1.2,0-2.3-0.2-3.3-0.7
		c-0.8-0.3-1.4-0.8-1.9-1.3s-0.9-1.1-1.2-1.8c-0.4-1-0.7-2-0.7-3.1c0-2,0.7-3.5,1.9-4.7c1.3-1.2,3.1-1.9,5.4-1.9
		c0.8,0,1.5,0.1,2.1,0.2c0.7,0.1,1.3,0.3,2.2,0.7v0.1c-0.1,0.3-0.2,0.7-0.2,1.1c-0.1,0.7-0.1,1.3-0.2,1.9h-0.7c0-0.7,0-1.2-0.1-1.6
		c-0.4-0.4-0.9-0.8-1.3-1c-0.4-0.2-1.1-0.3-1.9-0.3c-1.4,0-2.5,0.4-3.3,1.3c-0.9,0.9-1.2,2.2-1.2,3.8c0,1,0.1,1.9,0.4,2.5
		c0.3,0.8,0.7,1.3,1.1,1.9c0.4,0.4,0.9,0.9,1.4,1.1c0.7,0.3,1.4,0.4,2.3,0.4c0.5,0,1.2-0.1,1.6-0.2c0.5-0.1,1.1-0.3,1.8-0.8
		L32.8,421.5z"/>
	<path fill="#00577a" d="M35,423.1v-0.8c0.5,0,0.9,0,1-0.1c0.1-0.1,0.2-0.1,0.2-0.1c0.1,0,0.1-0.1,0.1-0.2c0.1-0.2,0.1-0.7,0.1-1.3
		v-1.9v-4.3v-1.8c0-0.7,0-1.1-0.1-1.3c0-0.1-0.1-0.1-0.1-0.2c-0.1,0-0.1-0.1-0.2-0.1c-0.1,0-0.4,0-1-0.1v-0.8c1,0,2,0.1,3.1,0.1
		c1,0,1.8,0,2.5-0.1v0.8c-0.7,0-1,0-1.1,0.1c-0.1,0-0.2,0.1-0.2,0.1c0,0.1-0.1,0.2-0.1,0.7c0,0.7-0.1,1.5-0.1,2.6v1.1
		c0.4,0,1.3,0.1,2.6,0.1c1.8,0,2.7,0,3.2-0.1v-1.1c0-1,0-1.5,0-1.9c0-0.8-0.1-1.3-0.1-1.3c0-0.1,0-0.1-0.1-0.2c0,0-0.1-0.1-0.2-0.1
		s-0.4,0-1.1-0.1v-0.7c0.8,0,1.5,0.1,2.5,0.1c1.1,0,2.1,0,3.1-0.1v0.8c-0.5,0-0.9,0-1,0.1c-0.1,0-0.2,0.1-0.2,0.1s-0.1,0.1-0.1,0.2
		c-0.1,0.2-0.1,0.7-0.1,1.3v1.9v4.3v1.8c0,0.7,0,1.1,0.1,1.3c0,0.1,0.1,0.1,0.1,0.2c0,0,0.1,0.1,0.2,0.1c0.1,0,0.4,0,1,0.1v0.8
		c-1,0-2-0.1-3.1-0.1c-1,0-1.8,0-2.5,0.1v-0.8c0.7,0,1,0,1.1-0.1c0.1,0,0.2-0.1,0.2-0.1c0-0.1,0.1-0.2,0.1-0.7
		c0-0.7,0.1-1.5,0.1-2.6v-1.9c-0.3,0-1.1-0.1-2.5-0.1c-1.3,0-2.3,0-2.7,0c-0.2,0-0.3,0-0.5,0v1.9c0,1,0,1.5,0,1.9
		c0,0.8,0.1,1.3,0.1,1.4s0,0.1,0.1,0.1s0.1,0.1,0.2,0.1c0.1,0,0.4,0,1.1,0.1v0.8c-0.8,0-1.5-0.1-2.5-0.1C37,423,36,423,35,423.1z"/>
	<path fill="#00577a" d="M66.3,423.1v-0.8c0.7,0,1.1-0.1,1.2-0.1c0.1,0,0.1-0.1,0.2-0.1c0-0.1,0.1-0.2,0.1-0.3
		c0-0.3,0.1-1.1,0.1-2.3c0-0.5,0-1.5,0-3c0-1.2,0-2.3,0-3.3s-0.1-1.5-0.1-1.8c0-0.1-0.1-0.1-0.1-0.2c0,0-0.1-0.1-0.3-0.1
		c-0.4-0.1-0.8-0.1-1.1-0.1v-0.8c1.2,0,2.1,0.1,2.5,0.1c0.7,0,1.2,0,1.9-0.1l0.8,1.9l0.7,1.3l2.9,6c0.5-1.2,1.1-2.1,1.3-2.9l1.2-2.5
		c0.7-1.4,1-2.3,1.2-2.6c0.1-0.3,0.3-0.8,0.4-1.2c0.8,0,1.3,0.1,1.5,0.1l2.6-0.1v0.8H83c-0.5,0-1,0.1-1.1,0.2
		c-0.1,0.1-0.2,0.4-0.2,0.9s0,0.9,0,1.1v2.5v3.2c0,0.8,0,1.2,0,1.3c0,0.8,0.1,1.2,0.1,1.4c0,0.1,0,0.1,0.1,0.2c0,0,0.1,0.1,0.2,0.1
		s0.4,0.1,1.1,0.1v0.8l-2.9-0.1l-2.7,0.1v-0.7c0.8,0,1.1-0.1,1.2-0.1c0.1-0.1,0.2-0.2,0.2-0.4s0.1-1,0.1-2.3v-6.7l-2.1,4.3l-1,2.1
		c-0.2,0.5-0.7,1.4-1.1,2.4c-0.3,0.7-0.5,1.2-0.7,1.5h-0.5c-0.2-0.5-0.5-1.2-0.9-2.1c-0.7-1.5-1.2-2.6-1.5-3.4l-2.3-4.9v4.5
		c0,0.8,0,1.6,0,2.6s0,1.6,0.1,1.8c0,0.1,0.1,0.2,0.1,0.3s0.1,0.1,0.2,0.1c0.1,0,0.4,0.1,1.1,0.1v0.8c-0.7,0-1.3-0.1-2-0.1
		C67.6,423,66.8,423,66.3,423.1z"/>
	<path fill="#00577a" d="M86.2,423.1v-0.4c0.3-0.2,0.5-0.3,0.8-0.5c0-0.3,0.1-0.7,0.1-1.1c0-0.9,0-2.5,0-4.8c0-0.7,0-1.6,0-3
		c0-1,0-1.6-0.1-1.8c0-0.1-0.1-0.1-0.1-0.2c-0.1-0.1-0.5-0.1-1.3-0.2v-0.8c0.1,0,0.2,0,0.4,0h1.2c0.4,0,0.9,0,1.5,0
		c0.5,0,1.1,0,1.4,0c0.9,0,1.4-0.1,1.6-0.1c1,0,1.8,0.1,2.2,0.3c0.5,0.2,0.9,0.5,1.1,0.9c0.2,0.4,0.3,0.9,0.3,1.3
		c0,0.5-0.1,1-0.4,1.4c-0.3,0.4-0.7,0.8-1.1,1.1c-0.2,0.1-0.9,0.3-1.8,0.7c1.1,0.1,1.8,0.3,2.2,0.5c0.4,0.2,0.8,0.5,1,1
		c0.2,0.4,0.3,1,0.3,1.5c0,0.7-0.1,1.2-0.4,1.6c-0.3,0.4-0.5,0.9-1,1.2c-0.4,0.3-0.9,0.7-1.4,0.9s-1.2,0.3-2,0.3l-3-0.1
		C87.5,423,87,423,86.2,423.1z M89.5,415.5H90c0.4,0,0.8,0,1.1-0.1c0.3-0.1,0.7-0.2,0.9-0.3c0.2-0.2,0.4-0.4,0.5-0.8
		c0.1-0.3,0.2-0.8,0.2-1.1c0-0.4-0.1-0.8-0.2-1.1c-0.1-0.3-0.3-0.5-0.7-0.7c-0.2-0.1-0.7-0.2-1.2-0.2c-0.4,0-0.8,0-1,0.1
		c0,0.4,0,1-0.1,1.5v1.4V415.5L89.5,415.5z M89.6,422c0.2,0,0.5,0.1,1.1,0.1c0.8,0,1.3-0.2,1.8-0.8c0.4-0.5,0.7-1.2,0.7-2.1
		c0-0.7-0.1-1.2-0.3-1.6s-0.5-0.7-1-0.9c-0.4-0.2-0.9-0.2-1.6-0.2c-0.2,0-0.4,0-0.7,0v4.2v1.1C89.5,421.8,89.5,421.9,89.6,422z"/>
	<path fill="#00577a" d="M99,423.1v-0.5c0.3-0.2,0.7-0.3,0.9-0.5c0-0.2,0.1-0.7,0.1-1.2c0-1.1,0.1-1.9,0.1-2.3v-4.2
		c0-0.1,0-0.8,0-1.8c0-0.7-0.1-1.1-0.1-1.2c0-0.1-0.1-0.1-0.1-0.1c-0.1-0.1-0.5-0.1-1.3-0.2v-0.7h2.1c0.4,0,0.8,0,1.2,0
		c0.8,0,1.6,0,2.6,0h1.8c0.2,0,0.7,0,1.3,0c0.1,0,0.1,0,0.3,0l0.1,0.1l-0.2,1.3c0,0.1,0,0.5-0.1,1.3H107c0-0.8,0-1.2-0.1-1.3
		c0-0.1-0.1-0.1-0.1-0.2c-0.1,0-0.3-0.1-0.7-0.1c-0.5-0.1-1.1-0.1-1.8-0.1c-0.5,0-1.1,0-1.6,0.1c-0.1,0.7-0.1,1.5-0.1,2.6v1.9
		c0.4,0,0.8,0,1.2,0c0.1,0,0.7,0,1.4,0c0.3,0,0.5,0,0.5-0.1c0,0,0.1-0.1,0.1-0.2c0.1-0.2,0.1-0.7,0.1-1.2h0.8v2v2h-0.8
		c0-0.7,0-1.1-0.1-1.3c-0.1-0.1-0.2-0.2-0.4-0.2c-0.4-0.1-0.9-0.1-1.5-0.1c-0.5,0-1.1,0-1.4,0.1v3.8c0,0.4,0,0.8,0,1.1
		c0.4,0,1,0.1,1.6,0.1s1.2,0,1.8-0.1c0.5,0,0.9-0.1,1-0.2c0,0,0.1-0.1,0.1-0.2c0.1-0.3,0.2-0.9,0.3-1.6h0.8c-0.1,1.2-0.2,2.2-0.2,3
		l-0.1,0.1c-0.3,0-0.9,0.1-1.6,0.1h-1.4c-1.4,0-2.3,0-2.9,0C101.8,423,100.8,423,99,423.1z"/>
</g>
<g>
	<g>
		<g>
			<path fill="#00577a" d="M-106.3,401.7c-1.9,2.8-5.1,4.5-8.7,4.5c-5.7,0-10.4-4.6-10.6-10.3c0,0-0.9,0.1-2.8,0.1
				c-0.2,0-1-0.4-1.2-0.4c0.2,0,1-0.5,1.2-0.5c0.9,0.1,1.5,0.1,2.7,0.2c0.1-5.7,4.8-10.2,10.6-10.2c4.1,0,7.7,2.4,9.4,5.7
				c2.6-1,4.2-6.6,4-8.1c-3.4-3.5-8.1-5.7-13.4-5.7c-10.2,0-18.5,8.3-18.5,18.5s8.3,18.5,18.5,18.5c5.3,0,10-2.3,13.4-5.7
				C-101.4,408.4-106,401.4-106.3,401.7z"/>
		</g>
		<path fill="#00577a" d="M-105.6,400.6c-0.1-0.1-0.3-0.1-0.4-0.2c-0.5-0.2-1-0.3-1.4-0.5c-0.2-0.1-0.4-0.1-0.6-0.2
			c-0.6-0.2-1.2-0.4-1.9-0.6c-0.1,0-0.1,0-0.2-0.1c-0.8-0.2-1.5-0.4-2.4-0.6l0,0c-0.7-0.2-1.5-0.4-2.4-0.6c-0.1,0-0.2,0-0.3-0.1
			c-0.7-0.2-1.5-0.3-2.4-0.5h-0.1c-1.1-0.2-2.4-0.4-3.6-0.6c-0.2,0-0.5-0.1-0.7-0.1c-1.1-0.2-2.4-0.3-3.6-0.4c0,0,0,0-0.1,0l0,0
			c-1.1-0.1-2.2-0.2-3.3-0.2c1.1-0.1,2.3-0.1,3.3-0.3c0-0.3,0-0.6,0.1-0.9c-2.4,0.5-4.9,0.9-7.5,1.2c2.6,0.2,5.1,0.6,7.7,1.2
			c6.1,1.4,12,3.8,17.2,7c2.4,1.4,4.6,3,6.7,4.7c1.3-1.4,2.5-3,3.3-4.7C-100.5,402.6-103,401.5-105.6,400.6z M-117.6,394.3
			L-117.6,394.3c0.9-0.1,1.6-0.3,2.4-0.5c0.1,0,0.2,0,0.3-0.1c0.8-0.2,1.5-0.4,2.3-0.5h0.1c0.8-0.2,1.5-0.4,2.4-0.6
			c0.1,0,0.2-0.1,0.2-0.1c0.6-0.2,1.2-0.4,1.8-0.6c0.2-0.1,0.4-0.1,0.6-0.2c0.5-0.2,1-0.3,1.4-0.5c0.1-0.1,0.3-0.1,0.4-0.2
			c2.6-1,5-2,7.3-3.3c-0.8-1.7-1.9-3.4-3.3-4.7c-2,1.7-4.3,3.3-6.7,4.7c-5.2,3.2-11.1,5.5-17.2,7c0,0.3-0.1,0.6-0.1,0.9
			C-122.8,395.3-120.2,394.9-117.6,394.3z"/>
	</g>
</g>
</svg>
